<mxfile host="app.diagrams.net" modified="2023-10-11T13:47:38.474Z" agent="Mozilla/5.0 (Macintosh; Intel Mac OS X 10_15_7) AppleWebKit/605.1.15 (KHTML, like Gecko) Version/16.5.2 Safari/605.1.15" version="22.0.4" etag="bzm_KCTM1ilN2519N-Jq" type="github">
  <diagram name="Page-1" id="djyRzcTOt3VMRXSjjJ17">
    <mxGraphModel>
      <root>
        <mxCell id="0" />
        <mxCell id="1" parent="0" />
      </root>
    </mxGraphModel>
  </diagram>
</mxfile>
